<svg width="240" height="80" viewBox="0 0 240 80" fill="none" xmlns="http://www.w3.org/2000/svg">
<g clip-path="url(#clip0)">
<path d="M117.683 18.8552C117.683 17.9157 117.966 17.1863 118.519 16.6547C119.06 16.1354 119.794 15.8758 120.734 15.8758H123.926C124.853 15.8758 125.587 16.1354 126.127 16.6547C126.681 17.1863 126.964 17.928 126.964 18.8552V22.9473H123.965V18.9541C123.965 18.8058 123.862 18.7316 123.656 18.7316H120.991C120.785 18.7316 120.682 18.8058 120.682 18.9541V22.1808C120.682 22.8855 120.965 23.4666 121.545 23.9116C121.789 24.0971 122.111 24.2949 122.51 24.5174C122.652 24.5792 122.832 24.6781 123.064 24.8018L123.643 25.0861C124.673 25.593 125.419 26.1246 125.883 26.6809C126.591 27.4969 126.938 28.5477 126.938 29.8458V33.1714C126.938 34.111 126.655 34.8528 126.102 35.372C125.561 35.8912 124.827 36.1509 123.9 36.1509H120.695C119.755 36.1509 119.021 35.8912 118.481 35.372C117.927 34.8404 117.644 34.111 117.644 33.1714V29.0793H120.643V33.0725C120.643 33.2209 120.746 33.3074 120.952 33.3074H123.63C123.836 33.3074 123.939 33.2332 123.939 33.0725V29.8458C123.939 29.2153 123.656 28.6837 123.089 28.251C122.845 28.0656 122.523 27.8678 122.124 27.6576C121.995 27.5958 121.802 27.4969 121.557 27.3732L120.978 27.0642C119.961 26.5326 119.202 25.9886 118.725 25.4199C118.03 24.5792 117.683 23.5037 117.683 22.1932V18.8552Z" fill="white"/>
<path d="M139.875 27.4331V36.1366H136.876V15.8615H143.119C144.059 15.8615 144.806 16.1211 145.346 16.6527C145.9 17.1843 146.17 17.9137 146.17 18.841V22.4633C146.17 24.0828 145.784 25.3067 145.012 26.1103C144.175 26.9881 142.862 27.4208 141.047 27.4208H139.875V27.4331ZM139.875 24.5773H141.047C141.883 24.5773 142.437 24.429 142.733 24.1199C143.029 23.8355 143.171 23.2792 143.171 22.4756V18.9522C143.171 18.8039 143.068 18.7297 142.862 18.7297H139.875V24.5773Z" fill="white"/>
<path d="M161.682 15.8615C162.622 15.8615 163.355 16.1211 163.896 16.6404C164.45 17.172 164.733 17.9137 164.733 18.841V33.1448C164.733 34.0843 164.45 34.8261 163.896 35.3454C163.355 35.8646 162.622 36.1242 161.682 36.1242H158.489C157.563 36.1242 156.816 35.8646 156.262 35.333C155.709 34.8138 155.439 34.0843 155.439 33.1448V18.8533C155.439 17.9137 155.722 17.1843 156.288 16.6527C156.829 16.1335 157.563 15.8739 158.489 15.8739H161.682V15.8615ZM158.76 18.7297C158.554 18.7297 158.451 18.8039 158.451 18.9522V33.0582C158.451 33.2066 158.554 33.2931 158.76 33.2931H161.424C161.63 33.2931 161.733 33.2189 161.733 33.0582V18.9522C161.733 18.8039 161.63 18.7297 161.424 18.7297H158.76Z" fill="white"/>
<path d="M180.888 15.8615C181.828 15.8615 182.574 16.1211 183.115 16.6527C183.669 17.1843 183.939 17.9137 183.939 18.841V22.1666C183.939 23.3163 183.746 24.2064 183.36 24.8617C182.948 25.554 182.304 25.9249 181.467 25.999C182.317 26.0609 182.948 26.4441 183.36 27.1364C183.746 27.7793 183.939 28.6818 183.939 29.8315V36.1489H180.94V29.5472C180.94 28.7436 180.798 28.1873 180.502 27.9029C180.206 27.5939 179.652 27.4455 178.816 27.4455H177.644V36.1489H174.645V15.8739H180.888V15.8615ZM177.657 24.5773H178.828C179.665 24.5773 180.219 24.429 180.515 24.1199C180.811 23.8355 180.952 23.2792 180.952 22.4756V18.9522C180.952 18.8039 180.849 18.7297 180.643 18.7297H177.657V24.5773Z" fill="white"/>
<path d="M200.622 18.7297H197.481V36.1366H194.494V18.7297H191.328V15.8615H200.622V18.7297Z" fill="white"/>
<path d="M104.334 43.8634H110.551C111.491 43.8634 112.225 44.123 112.765 44.6422C113.319 45.1738 113.602 45.9156 113.602 46.8428V50.1684C113.602 51.3182 113.409 52.2083 113.023 52.8635C112.624 53.5558 112.006 53.9267 111.156 54.0009C112.006 54.0627 112.637 54.446 113.048 55.1383C113.435 55.7812 113.628 56.6836 113.628 57.8334V59.1686C113.615 60.7881 113.216 62.012 112.456 62.828C111.62 63.7057 110.294 64.1384 108.479 64.1384H104.334V43.8634ZM110.603 46.9541C110.603 46.8057 110.5 46.7316 110.294 46.7316H107.32L107.333 52.5668H108.504C109.315 52.5668 109.869 52.4185 110.165 52.1094C110.461 51.825 110.603 51.2687 110.603 50.4651V46.9541ZM107.346 61.2826H108.491C109.328 61.2826 109.895 61.1343 110.191 60.8252C110.474 60.5408 110.628 59.9845 110.641 59.1686V57.5367C110.641 56.7331 110.5 56.1768 110.204 55.8924C109.907 55.5833 109.354 55.435 108.517 55.435H107.346V61.2826Z" fill="white"/>
<path d="M131.521 64.1384H123.488V43.8634H131.521V46.7316H126.488V52.5668H131.521V55.4226H126.488V61.2703H131.521V64.1384Z" fill="white"/>
<path d="M148.23 46.7316H145.089V64.1384H142.102V46.7316H138.936V43.8634H148.23V46.7316Z" fill="white"/>
<path d="M165.209 46.7316H162.068V64.1384H159.082V46.7316H155.915V43.8634H165.209V46.7316Z" fill="white"/>
<path d="M172.727 64.1384V43.8634H175.739V64.1384H172.727Z" fill="white"/>
<path d="M188.341 43.8634L191.431 53.902L192.049 56.4364L191.856 53.1231V43.8634H194.752V64.1384H191.959L188.882 54.0998L188.264 51.3058L188.457 54.8787V64.1384H185.561V43.8634H188.341Z" fill="white"/>
<path d="M213.958 64.1389H209.787C207.972 64.1389 206.646 63.7062 205.823 62.8284C205.05 62.0125 204.664 60.7886 204.664 59.169V46.8556C204.664 45.9161 204.947 45.1866 205.514 44.655C206.054 44.1358 206.788 43.8762 207.715 43.8762H210.907C211.847 43.8762 212.594 44.1358 213.134 44.6674C213.688 45.199 213.958 45.9284 213.958 46.8556V50.9477H210.959V46.9545C210.959 46.8062 210.856 46.732 210.65 46.732H207.985C207.779 46.732 207.676 46.8062 207.676 46.9545V59.169C207.676 59.985 207.818 60.5413 208.114 60.8504C208.397 61.1347 208.951 61.2831 209.787 61.2831H210.959V55.4354H209.208V52.5796H213.958V64.1389Z" fill="white"/>
<path d="M78.3049 4.79679V75.2032H4.99439V4.79679H78.3049ZM83.2995 0H2.57431C1.15831 0 -0.000244141 1.11266 -0.000244141 2.47257V77.5274C-0.000244141 78.8873 1.15831 80 2.57431 80H83.2995V0Z" fill="white"/>
<path d="M234.992 4.79679V75.2032H83.2994V4.79679H234.992ZM78.3047 0V80H237.425C238.841 80 240 78.8873 240 77.5274V2.47257C240 1.11266 238.841 0 237.425 0H78.3047Z" fill="white"/>
<path d="M18.4465 26.0856L34.8078 41.873L34.782 63.2113H39.339V39.6848L21.6389 22.9826L18.4465 26.0856Z" fill="white"/>
<path d="M64.827 26.0856L61.6475 22.9826L43.9474 39.6848V63.2113H48.5044L48.4786 41.873L64.827 26.0856Z" fill="white"/>
<path d="M55.1338 16.7888L41.6303 29.6214L28.1396 16.7888L24.9085 19.8919L41.6303 35.7781L58.3649 19.8919L55.1338 16.7888Z" fill="white"/>
</g>
<defs>
<clipPath id="clip0">
<rect x="-0.000244141" width="240" height="80" fill="white"/>
</clipPath>
</defs>
</svg>
